<svg width="180" height="41" viewBox="0 0 180 41" fill="none" xmlns="http://www.w3.org/2000/svg">
<path d="M13.6891 34.5333C15.378 34.5333 16.6668 33.4889 17.5557 31.4C18.4668 29.3111 18.9224 25.8667 18.9224 21.0667V17.7C18.9224 14.1889 18.5002 11.4778 17.6557 9.56667C16.8113 7.65556 15.6113 6.7 14.0557 6.7H11.5557V34.5333H13.6891ZM14.7224 40.2333C13.9224 40.2333 12.678 40.1889 10.9891 40.1C9.3224 40.0333 7.60017 40 5.8224 40H0.522396V0.933334H5.8224C7.31128 0.911111 8.93351 0.855556 10.6891 0.766667C12.4446 0.677779 13.8224 0.633335 14.8224 0.633335C20.4891 0.633335 24.5446 2.22222 26.9891 5.4C29.4557 8.57778 30.6891 13.2111 30.6891 19.3C30.6891 21.3667 30.5446 23.3333 30.2557 25.2C29.9891 27.0667 29.478 28.9444 28.7224 30.8333C27.9668 32.7 27.0113 34.3111 25.8557 35.6667C24.7002 37.0222 23.1668 38.1222 21.2557 38.9667C19.3446 39.8111 17.1668 40.2333 14.7224 40.2333ZM57.4565 40H33.8232V0.933334H56.9565L56.2898 8.8L44.8565 8.46667V16H53.8565V23.8L44.8565 23.1333V32L57.4565 31.6667V40ZM85.15 37.2333L84.85 37.6C84.6278 37.8222 84.25 38.1111 83.7167 38.4667C83.2056 38.8 82.5833 39.1444 81.85 39.5C81.1389 39.8333 80.1833 40.1111 78.9833 40.3333C77.7833 40.5778 76.4944 40.7 75.1167 40.7C72.2056 40.7 69.7167 40.2222 67.65 39.2667C65.5833 38.2889 63.9611 36.8778 62.7833 35.0333C61.6278 33.1667 60.7944 31.0667 60.2833 28.7333C59.7722 26.3778 59.5167 23.6556 59.5167 20.5667C59.5167 17.2778 59.7722 14.4444 60.2833 12.0667C60.7944 9.66667 61.6389 7.56667 62.8167 5.76667C64.0167 3.94445 65.6611 2.57778 67.75 1.66667C69.8389 0.755557 72.3833 0.300002 75.3833 0.300002C76.7611 0.300002 78.05 0.422224 79.25 0.666668C80.4722 0.911111 81.4278 1.18889 82.1167 1.5C82.8278 1.81111 83.4611 2.16667 84.0167 2.56667C84.5944 2.96667 84.95 3.24444 85.0833 3.4C85.2389 3.55556 85.35 3.67778 85.4167 3.76667L84.9167 11.4333H79.85L78.1167 7.46667C77.7167 7.35556 77.3833 7.3 77.1167 7.3C75.6278 7.3 74.4833 7.64445 73.6833 8.33333C72.8833 9 72.2722 10.3222 71.85 12.3C71.4278 14.2556 71.2167 17.0778 71.2167 20.7667C71.2167 22.9667 71.35 24.8889 71.6167 26.5333C71.9056 28.1778 72.25 29.4444 72.65 30.3333C73.05 31.2 73.5278 31.9 74.0833 32.4333C74.6389 32.9667 75.1389 33.3111 75.5833 33.4667C76.0278 33.6 76.5056 33.6667 77.0167 33.6667C78.15 33.6667 79.3389 33.5333 80.5833 33.2667C81.8278 32.9778 82.85 32.5444 83.65 31.9667L85.15 37.2333ZM99.4201 24.9C99.4201 28.5889 99.6978 31.1556 100.253 32.6C100.831 34.0444 101.831 34.7667 103.253 34.7667C104.298 34.7667 105.087 34.5111 105.62 34C106.153 33.4667 106.553 32.3889 106.82 30.7667C107.109 29.1222 107.253 26.6667 107.253 23.4V15.3667C107.253 12.1889 106.942 9.82222 106.32 8.26667C105.698 6.71111 104.676 5.93333 103.253 5.93333C101.831 5.93333 100.831 6.7 100.253 8.23334C99.6978 9.74445 99.4201 12.5111 99.4201 16.5333V24.9ZM102.553 40.7C100.709 40.7 99.0423 40.5333 97.5534 40.2C96.0867 39.8667 94.8201 39.4 93.7534 38.8C92.6867 38.2 91.7534 37.4333 90.9534 36.5C90.1756 35.5667 89.5423 34.5667 89.0534 33.5C88.5867 32.4333 88.2089 31.1889 87.9201 29.7667C87.6312 28.3222 87.4312 26.8889 87.3201 25.4667C87.2089 24.0222 87.1534 22.4 87.1534 20.6C87.1534 17.9333 87.2867 15.6111 87.5534 13.6333C87.8423 11.6556 88.3645 9.8 89.1201 8.06667C89.8756 6.31111 90.8756 4.88889 92.1201 3.8C93.3867 2.71111 95.0089 1.85556 96.9867 1.23333C98.9867 0.611112 101.342 0.300002 104.053 0.300002C105.92 0.300002 107.598 0.477779 109.087 0.833335C110.576 1.16667 111.853 1.63333 112.92 2.23333C113.987 2.83334 114.909 3.61111 115.687 4.56667C116.487 5.52222 117.12 6.54444 117.587 7.63333C118.076 8.7 118.464 9.95556 118.753 11.4C119.042 12.8444 119.242 14.2778 119.353 15.7C119.464 17.1222 119.52 18.7333 119.52 20.5333C119.52 23.2 119.376 25.5222 119.087 27.5C118.798 29.4778 118.276 31.3333 117.52 33.0667C116.764 34.7778 115.753 36.1778 114.487 37.2667C113.22 38.3333 111.587 39.1778 109.587 39.8C107.609 40.4 105.264 40.7 102.553 40.7ZM136.15 34.5333C137.839 34.5333 139.128 33.4889 140.017 31.4C140.928 29.3111 141.383 25.8667 141.383 21.0667V17.7C141.383 14.1889 140.961 11.4778 140.117 9.56667C139.272 7.65556 138.072 6.7 136.517 6.7H134.017V34.5333H136.15ZM137.183 40.2333C136.383 40.2333 135.139 40.1889 133.45 40.1C131.783 40.0333 130.061 40 128.283 40H122.983V0.933334H128.283C129.772 0.911111 131.394 0.855556 133.15 0.766667C134.906 0.677779 136.283 0.633335 137.283 0.633335C142.95 0.633335 147.006 2.22222 149.45 5.4C151.917 8.57778 153.15 13.2111 153.15 19.3C153.15 21.3667 153.006 23.3333 152.717 25.2C152.45 27.0667 151.939 28.9444 151.183 30.8333C150.428 32.7 149.472 34.3111 148.317 35.6667C147.161 37.0222 145.628 38.1222 143.717 38.9667C141.806 39.8111 139.628 40.2333 137.183 40.2333ZM179.917 40H156.284V0.933334H179.417L178.751 8.8L167.317 8.46667V16H176.317V23.8L167.317 23.1333V32L179.917 31.6667V40Z" fill="#052051"/>
</svg>
